<svg xmlns="http://www.w3.org/2000/svg" fill="none" viewBox="0 0 166 24" height="24" width="166">
<g clip-path="url(#clip0_1314_1472)" id="Petlibro_Wordmark-Small_RGB_Black 1">
<path fill="black" d="M154.231 23.9823C152.055 23.9823 150.145 23.6492 148.502 22.9831C146.881 22.3169 145.593 21.3176 144.638 19.9853C143.706 18.6307 143.195 16.9653 143.106 14.9889C143.084 14.0785 143.073 13.1126 143.073 12.0911C143.073 11.0696 143.084 10.0815 143.106 9.1266C143.195 7.17249 143.706 5.51815 144.638 4.1636C145.571 2.80904 146.859 1.77647 148.502 1.06588C150.145 0.355294 152.055 0 154.231 0C156.407 0 158.317 0.355294 159.96 1.06588C161.604 1.77647 162.892 2.80904 163.824 4.1636C164.779 5.51815 165.29 7.17249 165.356 9.1266C165.401 10.0815 165.423 11.0696 165.423 12.0911C165.423 13.1126 165.401 14.0785 165.356 14.9889C165.268 16.9653 164.746 18.6307 163.791 19.9853C162.858 21.3176 161.57 22.3169 159.927 22.9831C158.306 23.6492 156.407 23.9823 154.231 23.9823ZM154.231 17.4871C154.964 17.4871 155.553 17.2761 155.997 16.8542C156.441 16.4101 156.674 15.7217 156.696 14.7891C156.741 13.8342 156.763 12.8905 156.763 11.9578C156.763 11.0252 156.741 10.1037 156.696 9.19322C156.674 8.57146 156.552 8.06072 156.33 7.66102C156.13 7.26131 155.852 6.97264 155.497 6.79499C155.142 6.59514 154.72 6.49521 154.231 6.49521C153.765 6.49521 153.343 6.59514 152.966 6.79499C152.61 6.97264 152.322 7.26131 152.1 7.66102C151.9 8.06072 151.789 8.57146 151.766 9.19322C151.744 10.1037 151.733 11.0252 151.733 11.9578C151.733 12.8905 151.744 13.8342 151.766 14.7891C151.811 15.7217 152.044 16.4101 152.466 16.8542C152.91 17.2761 153.499 17.4871 154.231 17.4871Z" id="Vector"></path>
<path fill="black" d="M83.9722 0.333786V23.6504H92.5658V0.333786H83.9722Z" id="Vector_2"></path>
<path fill="black" d="M62.7411 0.334961H44.6139V7.51395H49.3976V23.6457H57.8067V7.51395H62.7411V0.334961Z" clip-rule="evenodd" fill-rule="evenodd" id="Vector_3"></path>
<path fill="black" d="M23.3149 22.74V17.1372V15.0697V8.90328V6.81684V1.22258V0.323242H24.2143H31.7637H41.3017H42.2158V6.81684H41.358C41.3394 6.81791 41.3207 6.81845 41.3017 6.81845H31.309V8.90328H41.4727V15.0697H31.309V17.1372H42.4675V18.0435V22.74V23.6464H23.3149V22.74Z" clip-rule="evenodd" fill-rule="evenodd" id="Vector_4"></path>
<path fill="black" d="M0 22.7518V15.0858V13.782V1.2343V0.350008H0.730848C0.78513 0.339977 0.841293 0.334961 0.899337 0.334961H10.9919C13.0126 0.334961 14.7669 0.63474 16.2547 1.2343C17.7647 1.81165 18.9305 2.71099 19.7521 3.93231C20.5959 5.13143 21.0178 6.65253 21.0178 8.49561C21.0178 10.3387 20.5959 11.8487 19.7521 13.0256C18.9305 14.1804 17.7647 15.0353 16.2547 15.5904C14.7669 16.1234 13.0126 16.3898 10.9919 16.3898H8.66682V23.6578H0V22.7518ZM8.49373 10.2277H10.8253C11.1806 10.2277 11.5248 10.0945 11.8579 9.82796C12.191 9.53929 12.3576 9.07297 12.3576 8.429C12.3576 8.00709 12.2465 7.58518 12.0245 7.16326C11.8246 6.74135 11.4249 6.5304 10.8253 6.5304H8.49373V10.2277Z" clip-rule="evenodd" fill-rule="evenodd" id="Vector_5"></path>
<path fill="black" d="M65.2108 23.6516V22.7531V1.23561V0.334961H73.6776V16.7649H81.4301V23.6479H79.7205C79.6898 23.6509 79.6585 23.6524 79.6266 23.6524H66.1102C66.0964 23.6524 66.0828 23.6521 66.0693 23.6516H65.2108Z" clip-rule="evenodd" fill-rule="evenodd" id="Vector_6"></path>
<path fill="black" d="M135.143 14.016C136.072 14.203 136.852 14.4899 137.485 14.8765C138.903 15.7473 139.734 17.2712 140.46 19.6348L141.74 23.6466H132.918L131.777 19.697C130.999 16.9255 130.437 16.225 128.572 16.0682V23.6468H120.278V0.325752H122.252C122.288 0.322126 122.324 0.320312 122.361 0.320312H130.842C134.047 0.320312 136.55 0.955749 138.353 2.22662C140.155 3.49749 141.057 5.23761 141.057 7.44698C141.057 8.75696 140.712 9.90074 140.022 10.8783C139.354 11.8364 138.497 12.6087 137.451 13.1952C137.451 13.1952 136.608 13.6429 135.143 14.016ZM128.585 9.92012H131.017C131.528 9.92012 131.906 9.75355 132.15 9.42039C132.417 9.06503 132.55 8.66525 132.55 8.22105C132.55 7.77685 132.428 7.36597 132.183 6.9884C131.961 6.58862 131.573 6.38873 131.017 6.38873H128.585V9.92012Z" clip-rule="evenodd" fill-rule="evenodd" id="Vector_7"></path>
<path fill="black" d="M96.0488 23.6511V0.334961H108.007C110.138 0.334961 111.882 0.507537 113.236 1.04048C114.591 1.55122 115.59 2.42231 116.234 3.46599C116.9 4.48746 117.212 5.67107 117.212 7.22548C117.212 7.93607 117.026 8.68436 116.715 9.26172C116.426 9.81686 115.948 10.3142 115.513 10.6399C114.993 11.0298 114.2 11.4106 113.636 11.5456C114.479 11.9009 115.781 12.5374 116.579 13.4005C117.325 14.2066 117.743 15.4007 117.743 16.511C117.743 18.1764 117.278 19.5168 116.634 20.4535C115.901 21.5194 114.835 22.3188 113.436 22.8517C112.059 23.3847 109.467 23.6511 107.447 23.6511H96.0488ZM107.167 9.07882H104.502V6.04772H107.134C107.98 6.04772 108.666 6.73371 108.666 7.57992C108.666 8.40774 107.995 9.07882 107.167 9.07882ZM104.502 17.9129H107.515C108.409 17.9129 109.134 17.1877 109.134 16.293C109.134 15.3784 108.393 14.6371 107.479 14.6371H104.502V17.9129Z" clip-rule="evenodd" fill-rule="evenodd" id="Vector_8"></path>
</g>
<defs>
<clipPath id="clip0_1314_1472">
<rect fill="white" height="24" width="166"></rect>
</clipPath>
</defs>
</svg>
