<svg xmlns="http://www.w3.org/2000/svg" viewBox="0 8 64 64" width="64" height="64">
  <path fill="#000000" d="M7.18,59.38l11.34-2.4c.01-.26.02-.48.02-.76v-12.36c.18-.58.52-1.12,1.07-1.43l7.07-3.87-.06-10.13c-.03-.56-.64-1.08-.37-1.73v-7.03c.16-.16.42-.34.64-.37l3.45-.53c1.02-.16-.2,1.84,1.12,1.63l2.53-.39c.2-.03.49-.38.5-.59l.06-1.28,3.85-.56c1.28-.19,2.51-.17,3.82,0l12.05,1.49c.43.05.83.17,1.18.37v5.27c.45.1.51.34.51.69l-.03,5.51-.11,22.33-.08,2.98c-.21.2-.55.39-.85.46l-10.87,2.39-19.7,4.37c-2.41.54-4.48.58-6.91.1l-11.22-2.21c-.35-.07-.68-.33-.71-.58-.09-.85.76-1.16,1.69-1.36ZM47.96,22.78c-.21.04-.52,0-.7-.05l-.08-1.69-3.67.56c-1.23.19-3.09.14-4.34-.02l-11.21-1.44c-.54-.07-.97-.17-1.5-.34v7.55c0,.64.32.97.92,1.05l12.34,1.75,4.16.48c-.13-1.11-.03-3.45,1.1-3.65l10.26-1.78v-5.01c0-.17.06-.53-.03-.63s-.35-.21-.55-.23l-12.44-1.53c-1.31-.16-2.54-.18-3.81,0l-3.67.52-.04,1.1c-.05,1.16-1.64.7-2.29,1.09l7.21.93c1.2.15,2.45.08,3.65,0s2.31-.32,3.49-.51c.21-.03.63-.02.63.21l.04,1.41,3.22-.55c.47-.08.27-1.54.42-1.74l4.03-.65c-.39.31-.89.3-1.37.38l-2.37.4-.04.81c-.01.32-.15,1.03-.56,1.1l-2.79.48ZM30.62,20.27l-.07-1.2c-1.22.2-2.34.35-3.6.65,1.24.34,2.47.45,3.67.55ZM44.15,58.89l.05-14.88.05-14.92c0-.59.19-1.69.88-1.81l9.91-1.73c.19-.03.47-.17.6-.27.06-.04.1-.27.03-.27l-.22-.03s.03.26-.03.27c-.5.14-1.44.33-2.08.43l-8.29,1.41c-.45.08-1.01.84-1.01,1.4l-.03,26.62-.11,1.64c-.05.73-.04,1.42.23,2.12ZM55.54,56.11l.07-2.88.11-22.31.03-5.4c-.35.1-.67.2-1.03.26l-8.93,1.49c-.61.1-1.4.53-1.4,1.37l-.02,30.18,10.35-2.3c.29-.06.68-.21.82-.39ZM28.18,37.74v-6.37c.88-.98-.4-2.3-1.31-2.83v.79s0,9.11,0,9.11l1.3-.69ZM43.86,30.82l-4.18-.52-10.94-1.54-1.38-.15c.85.75,1.41,1.63,1.73,2.72l14.76,2.15v-2.65ZM28.95,34.51l14.89,2.24v-3.13s-12.76-1.87-12.76-1.87l-2.79-.37v6.24s.7-.23.7-.23c-.16-.15-.38-.46-.38-.68v-1.55c0-.19.2-.52.34-.66ZM43.82,36.91l-13.95-2.11c-.36-.06-.63-.06-1.02-.04v2.07c-.02.16.21.38.42.42l14.54,2.25v-2.59ZM30.73,45.99v-1.47s2.49.4,2.49.4c.71-.05,1.44-.28,2.1-.66l8.24-4.63-14-2.17c0,.29,0,.55-.03.73-.02.15-.34.27-.59.33v8.24s.65.36.65.36c.18.1.55.15.83.2.23-.41.31-.82.31-1.33ZM19.29,44.28c0-.48.63-.64.8-.89.19-.28.31-.66.62-.83l8.52-4.65c.03.23-.07.24-.28.38,0,0,.19.03.26.04.05,0,.21-.54.09-.64-.07-.06-.41-.08-.5-.03l-9.02,4.92c-1.59.87-1.1,3.02-1.09,4.71l.05,5.43c0,.13.19.33.28.33s.26-.18.26-.28v-8.49ZM19.4,52.06l9.29-5.19c.05-.29.04-.55.04-.85v-7.63s-7.63,4.13-7.63,4.13c-.44.24-.6.63-.9.93-.45.46-.83.64-.83,1.38l.03,7.21ZM31.99,55.36c1.5.01,2.83-.33,4.16-.93l7.67-4.45-.03-10.3-8.42,4.73c-.7.37-1.46.57-2.19.73-.89.28-1.2.98-1.2,1.86v8.35ZM32.49,45.3c-.53-.15-.75-.17-1.08.02.34.27.87.33,1.08-.02ZM32.05,45.74l-1-.16c-.04.33-.03.66.12.86.1.14.48.23.63.19l.25-.9ZM31.85,47.58c-.01-.33.02-.58-.09-.6l-.43-.09c-.12-.02-.46-.09-.51.02l-.17.39,1.2.27ZM25.65,48.99l3.6-1.96c-.21-.03-.53,0-.79.15l-9.14,5.2c2.19-.91,4.17-2.21,6.32-3.38ZM31.88,50.06v-2.35s-2.76-.44-2.76-.44l-3.14,1.77,5.9,1.02ZM31.86,54.93v-4.66s-6.33-1.08-6.33-1.08l-6.11,3.49,12.44,2.25ZM19.62,57.39l12.01,2.2,2.84.36c.67.04,1.28.04,1.96,0l7.37-1.66v-8.1s-7.06,4.1-7.06,4.1c-1.65.85-3.52,1.51-5.42,1.18l-11.29-1.93c-.46-.08-.91-.2-1.33-.3l.04,3.78c.19.15.53.31.87.38ZM31.57,55.39c.1.02.35-.14.31-.18-.02-.03-.1-.14-.19-.16l-12.06-2.16c-.16-.03-.36.22-.3.35l12.24,2.15ZM29.6,61.5l5.57-1.3-4.4-.59-10.04-1.86c-.79-.15-1.46-.28-2.24-.56l-11.34,2.4c-.53.11-.98.29-1.38.68,3.98.95,7.83,1.8,11.81,2.44,1.07.17,3.24.45,4.23.29,2.64-.39,5.15-.88,7.81-1.5ZM6.32,61.15l11.98,2.35c.23.05.57.11.76.11h3.15c.23,0,.61-.05.88-.11l20.63-4.62c.11-.02.2-.26.14-.32-.05-.05-.2-.08-.28-.06l-11.06,2.51-9.43,1.96c-1.36.28-2.65.3-4.03.11-2.87-.4-5.63-.9-8.45-1.54l-4.89-1.1c-.11.38.19.62.6.7Z"/>
</svg>
